<?xml version="1.0" standalone="no"?>
<!DOCTYPE svg PUBLIC "-//W3C//DTD SVG 20010904//EN"
 "http://www.w3.org/TR/2001/REC-SVG-20010904/DTD/svg10.dtd">
<svg version="1.0" xmlns="http://www.w3.org/2000/svg"
 width="1280.000000pt" height="1280.000000pt" viewBox="0 0 1280.000000 1280.000000"
 preserveAspectRatio="xMidYMid meet">

<g transform="translate(0.000000,1280.000000) scale(0.100000,-0.100000)"
fill="#000000" stroke="none">
<path d="M0 6400 l0 -6400 6400 0 6400 0 0 6400 0 6400 -6400 0 -6400 0 0
-6400z m6464 3189 c48 -13 119 -78 146 -133 39 -81 21 -182 -44 -248 -115
-114 -332 -62 -384 91 -26 73 -8 160 45 216 70 75 146 99 237 74z m-524 -134
c56 -29 48 -119 -13 -145 -12 -5 -69 -21 -127 -35 -482 -118 -917 -354 -1256
-682 -204 -197 -347 -383 -504 -652 -127 -219 -249 -547 -284 -767 -12 -74
-18 -92 -41 -111 -36 -32 -78 -30 -105 5 -20 24 -22 35 -17 102 3 41 18 120
32 175 28 108 94 314 105 330 3 6 15 33 25 60 42 115 220 453 272 515 7 8 42
55 78 105 240 328 599 631 989 835 193 101 489 211 700 259 102 24 111 24 146
6z m1065 -5 c193 -38 466 -137 695 -253 288 -146 493 -297 731 -536 214 -216
365 -418 506 -681 120 -222 219 -494 267 -734 24 -118 22 -160 -10 -185 -34
-26 -85 -27 -108 -2 -10 10 -24 57 -33 102 -83 451 -336 953 -650 1289 -423
454 -878 715 -1474 845 -70 15 -78 20 -94 60 -20 46 -5 92 35 108 22 8 21 8
135 -13z m-305 -1138 c379 -95 671 -299 874 -611 105 -161 185 -367 217 -561
6 -41 12 -147 12 -235 -1 -136 -5 -177 -27 -277 -32 -138 -70 -242 -133 -358
-87 -161 -145 -236 -354 -457 -195 -207 -279 -407 -279 -662 0 -146 5 -143
-196 -139 l-149 3 -3 484 c-3 559 -11 503 107 721 141 259 246 487 277 605 16
60 18 163 3 202 -12 34 -64 90 -101 109 -22 12 -118 14 -543 14 -495 0 -517
-1 -555 -20 -67 -34 -110 -111 -110 -194 1 -105 57 -249 241 -616 76 -151 143
-293 149 -315 7 -28 10 -185 8 -510 l-3 -470 -139 -9 c-84 -5 -149 -5 -165 0
-26 9 -26 10 -33 153 -6 109 -14 166 -33 234 -50 173 -114 272 -306 472 -244
255 -357 454 -426 748 -24 100 -27 132 -27 302 0 173 2 200 28 308 63 268 172
478 339 654 216 228 461 364 777 432 132 29 422 25 550 -7z m185 -1347 c41
-52 -15 -189 -274 -680 -15 -27 -41 -84 -58 -125 -17 -41 -35 -84 -40 -95 -4
-11 -10 -252 -13 -535 l-5 -515 -92 -3 c-51 -1 -94 -1 -94 0 -1 2 -5 239 -8
528 l-7 525 -36 80 c-19 44 -85 179 -146 300 -118 235 -136 274 -175 375 -42
105 -42 115 -13 145 l26 26 459 -3 c446 -3 461 -4 476 -23z m2504 -138 c52
-31 91 -101 91 -162 0 -79 -33 -133 -100 -167 -29 -16 -65 -28 -79 -28 -172 0
-253 199 -135 330 56 61 148 73 223 27z m-5806 12 c95 -49 129 -180 73 -287
-48 -94 -204 -106 -280 -22 -59 66 -70 136 -32 217 34 72 82 103 159 103 32 0
68 -5 80 -11z m129 -586 c17 -15 25 -47 48 -193 47 -292 205 -679 392 -960
142 -212 376 -471 546 -604 148 -116 399 -272 552 -344 98 -47 324 -131 383
-143 102 -21 131 -41 151 -102 9 -27 -21 -76 -50 -83 -43 -11 -403 118 -619
222 -275 132 -555 340 -801 594 -149 155 -235 266 -349 449 -179 288 -330 681
-374 978 -25 168 -6 221 74 206 17 -3 38 -12 47 -20z m5490 0 c28 -25 30 -65
9 -189 -71 -415 -217 -770 -460 -1124 -71 -103 -96 -134 -226 -276 -325 -356
-702 -600 -1195 -772 -163 -57 -238 -74 -267 -59 -48 25 -57 81 -20 120 12 13
49 32 82 42 211 63 355 119 525 204 181 91 243 129 374 230 175 134 392 344
500 483 149 192 296 444 374 643 89 227 116 321 148 520 23 141 29 163 51 183
20 18 32 22 57 16 17 -3 39 -13 48 -21z m-2266 -1449 c25 -7 54 -53 54 -87 0
-14 -9 -35 -19 -48 l-19 -24 -540 -3 -540 -3 -26 23 c-42 37 -33 129 13 141
24 7 1053 8 1077 1z m24 -366 c29 -31 36 -67 19 -97 -29 -51 -28 -51 -577 -51
-526 0 -540 1 -569 39 -27 35 -7 117 31 124 11 2 258 5 548 6 l527 1 21 -22z
m-143 -363 c-24 -150 -189 -291 -373 -321 -52 -8 -181 20 -248 53 -63 32 -137
102 -162 153 -10 22 -22 40 -26 40 -5 0 -28 86 -28 105 0 3 190 5 421 5 l422
0 -6 -35z m-3079 -945 c98 -23 176 -79 234 -169 37 -59 36 -72 -4 -67 -20 2
-37 12 -47 27 -61 98 -153 149 -271 149 -125 0 -221 -58 -270 -162 -36 -76
-44 -138 -30 -218 14 -79 37 -125 87 -174 62 -62 113 -81 218 -81 77 1 97 5
141 27 84 44 154 144 154 219 l0 29 -160 0 -160 0 0 30 0 30 194 0 c117 0 197
-4 201 -10 10 -16 -15 -131 -40 -187 -32 -70 -96 -137 -164 -170 -51 -26 -66
-28 -171 -28 -112 0 -117 1 -178 34 -74 40 -124 94 -160 171 -23 49 -26 68
-27 170 0 104 3 120 26 171 77 165 251 249 427 209z m6104 -19 c31 -12 79 -42
105 -65 58 -53 103 -130 86 -147 -20 -20 -58 -2 -76 35 -23 50 -105 111 -168
126 -71 17 -184 8 -236 -18 -102 -53 -155 -142 -161 -272 -3 -70 0 -95 19
-145 32 -85 104 -155 186 -179 75 -23 166 -18 233 12 62 27 126 95 150 159 36
97 43 92 -142 95 l-163 3 0 25 0 25 199 3 199 2 -6 -59 c-16 -154 -110 -278
-246 -326 -67 -23 -196 -20 -268 7 -80 30 -172 121 -201 199 -43 115 -37 250
14 352 28 55 96 127 143 151 95 50 230 56 333 17z m-7279 -6 c181 -47 273
-171 271 -365 -1 -154 -70 -268 -196 -326 -61 -28 -69 -29 -240 -32 l-178 -4
0 371 0 371 143 0 c94 0 162 -5 200 -15z m517 -355 l0 -370 -30 0 -30 0 0 370
0 370 30 0 30 0 0 -370z m1180 1 c0 -386 0 -384 -42 -373 -17 4 -18 30 -18
373 l0 369 30 0 30 0 0 -369z m740 339 l0 -30 -130 0 -130 0 0 -340 0 -340
-30 0 -30 0 -2 338 -3 337 -127 3 -128 3 0 29 0 30 290 0 290 0 0 -30z m490
-305 c186 -448 178 -421 126 -407 -25 7 -34 21 -64 95 l-36 87 -195 -2 -195
-3 -34 -87 c-31 -78 -38 -87 -64 -90 -16 -3 -31 -1 -34 3 -3 5 33 100 80 211
88 214 192 467 207 506 7 19 15 23 40 20 32 -3 32 -4 169 -333z m387 -5 l2
-335 186 -3 185 -2 0 -30 0 -30 -220 0 -220 0 0 371 0 370 33 -3 32 -3 2 -335z
m894 309 c12 -18 80 -120 151 -228 71 -108 132 -197 136 -198 4 -2 75 100 157
226 144 220 151 230 183 230 l32 1 -2 -372 -3 -372 -22 1 c-13 0 -27 1 -33 2
-6 1 -11 114 -12 304 l-3 302 -135 -202 c-115 -173 -139 -203 -160 -203 -22 0
-44 28 -158 201 -73 111 -136 199 -138 196 -3 -3 -5 -138 -4 -301 l1 -296 -36
0 -35 0 0 370 0 370 29 0 c22 0 36 -8 52 -31z m959 -338 c0 -391 1 -382 -47
-373 l-23 4 0 369 0 369 35 0 35 0 0 -369z m597 353 c102 -35 153 -109 153
-221 -1 -98 -50 -173 -140 -211 -19 -8 -37 -16 -39 -18 -2 -2 30 -49 71 -106
41 -57 85 -118 97 -136 l23 -33 -40 3 c-40 3 -43 6 -134 133 l-93 130 -98 3
-97 3 0 -136 0 -135 -35 0 -35 0 0 370 0 370 160 0 c120 0 171 -4 207 -16z
m660 -87 c23 -56 81 -196 129 -312 47 -115 97 -234 110 -264 27 -59 23 -72
-17 -64 -23 4 -33 18 -64 94 l-37 89 -195 -2 -196 -3 -34 -87 c-29 -71 -39
-87 -60 -93 -14 -3 -30 -2 -34 2 -5 5 28 96 72 203 123 297 178 430 201 488
19 47 24 52 52 52 30 0 33 -4 73 -103z m1693 73 l0 -30 -185 0 -186 0 3 -137
3 -138 168 -3 167 -2 0 -25 0 -25 -167 -2 -168 -3 0 -145 0 -145 188 -3 188
-2 -3 -26 -3 -25 -210 0 c-115 0 -216 0 -222 1 -10 0 -13 80 -13 363 0 200 3
367 7 370 3 4 102 7 220 7 l213 0 0 -30z"/>
<path d="M5260 4089 c0 -4 6 -10 13 -13 8 -3 7 -8 -6 -16 -30 -19 -5 -36 46
-32 40 3 45 7 49 31 4 25 2 26 -32 24 -31 -2 -32 -1 -10 6 21 7 18 8 -17 8
-24 -1 -43 -4 -43 -8z"/>
<path d="M5460 4030 c-12 -8 -10 -10 8 -10 13 0 20 4 17 10 -7 12 -6 12 -25 0z"/>
<path d="M5410 4000 c-35 -7 -35 -7 -5 -9 17 0 37 4 45 9 17 11 11 11 -40 0z"/>
<path d="M5268 3993 c6 -2 18 -2 25 0 6 3 1 5 -13 5 -14 0 -19 -2 -12 -5z"/>
<path d="M5320 3990 c-12 -7 -11 -10 5 -16 11 -4 22 -8 25 -10 3 -1 12 2 20 8
12 8 12 9 -2 4 -20 -6 -34 10 -16 17 9 4 8 6 -2 6 -8 0 -22 -3 -30 -9z"/>
<path d="M5405 3950 c3 -5 14 -10 23 -10 15 0 15 2 2 10 -20 13 -33 13 -25 0z"/>
<path d="M2287 3053 c-4 -3 -7 -143 -7 -311 l0 -304 143 4 c122 3 148 6 183
25 107 57 155 132 162 255 10 174 -81 298 -242 327 -66 12 -229 15 -239 4z"/>
<path d="M5303 2988 c-6 -18 -41 -104 -77 -192 -36 -87 -66 -162 -66 -167 0
-6 70 -8 163 -7 101 2 161 7 160 13 -1 6 -27 71 -58 145 -31 74 -65 159 -76
188 -11 28 -24 52 -28 52 -4 0 -12 -15 -18 -32z"/>
<path d="M8030 2890 l0 -171 144 3 144 3 38 31 c68 55 82 170 27 234 -45 54
-75 64 -220 68 l-133 4 0 -172z"/>
<path d="M8903 3004 c-4 -10 -39 -98 -79 -194 -40 -96 -70 -178 -68 -182 6 -9
308 -11 316 -2 4 3 -18 65 -48 137 -30 73 -64 157 -76 187 -25 67 -35 79 -45
54z"/>
</g>
</svg>
